<mxfile host="app.diagrams.net" modified="2024-05-21T17:58:34.824Z" agent="Mozilla/5.0 (Windows NT 10.0; Win64; x64) AppleWebKit/537.36 (KHTML, like Gecko) Chrome/122.0.0.0 YaBrowser/24.4.0.0 Safari/537.36" etag="jXYJJGM0M5T5goYgVdzb" version="24.4.4" type="device">
  <diagram name="Страница — 1" id="UZElUn-ItkdrWODCvr_B">
    <mxGraphModel dx="294" dy="639" grid="1" gridSize="10" guides="1" tooltips="1" connect="1" arrows="1" fold="1" page="1" pageScale="1" pageWidth="827" pageHeight="1169" math="0" shadow="0">
      <root>
        <mxCell id="0" />
        <mxCell id="1" parent="0" />
        <mxCell id="wFepEt08jiN-5MbmRkze-12" style="edgeStyle=orthogonalEdgeStyle;rounded=0;orthogonalLoop=1;jettySize=auto;html=1;" edge="1" parent="1" source="wFepEt08jiN-5MbmRkze-1" target="wFepEt08jiN-5MbmRkze-2">
          <mxGeometry relative="1" as="geometry" />
        </mxCell>
        <mxCell id="wFepEt08jiN-5MbmRkze-1" value="начало" style="ellipse;whiteSpace=wrap;html=1;" vertex="1" parent="1">
          <mxGeometry x="320" y="30" width="120" height="60" as="geometry" />
        </mxCell>
        <mxCell id="wFepEt08jiN-5MbmRkze-13" style="edgeStyle=orthogonalEdgeStyle;rounded=0;orthogonalLoop=1;jettySize=auto;html=1;" edge="1" parent="1" source="wFepEt08jiN-5MbmRkze-2" target="wFepEt08jiN-5MbmRkze-3">
          <mxGeometry relative="1" as="geometry" />
        </mxCell>
        <mxCell id="wFepEt08jiN-5MbmRkze-2" value="Получение S, C, Res и Len" style="shape=parallelogram;perimeter=parallelogramPerimeter;whiteSpace=wrap;html=1;fixedSize=1;" vertex="1" parent="1">
          <mxGeometry x="290" y="110" width="180" height="60" as="geometry" />
        </mxCell>
        <mxCell id="wFepEt08jiN-5MbmRkze-14" style="edgeStyle=orthogonalEdgeStyle;rounded=0;orthogonalLoop=1;jettySize=auto;html=1;entryX=0.5;entryY=0;entryDx=0;entryDy=0;" edge="1" parent="1" source="wFepEt08jiN-5MbmRkze-3" target="wFepEt08jiN-5MbmRkze-4">
          <mxGeometry relative="1" as="geometry" />
        </mxCell>
        <mxCell id="wFepEt08jiN-5MbmRkze-3" value="Инициализация указателей SI и DI" style="rounded=0;whiteSpace=wrap;html=1;" vertex="1" parent="1">
          <mxGeometry x="320" y="190" width="120" height="60" as="geometry" />
        </mxCell>
        <mxCell id="wFepEt08jiN-5MbmRkze-15" style="edgeStyle=orthogonalEdgeStyle;rounded=0;orthogonalLoop=1;jettySize=auto;html=1;" edge="1" parent="1" source="wFepEt08jiN-5MbmRkze-4" target="wFepEt08jiN-5MbmRkze-5">
          <mxGeometry relative="1" as="geometry" />
        </mxCell>
        <mxCell id="wFepEt08jiN-5MbmRkze-4" value="Считывание длины строки S в AL" style="rounded=0;whiteSpace=wrap;html=1;" vertex="1" parent="1">
          <mxGeometry x="320" y="270" width="120" height="60" as="geometry" />
        </mxCell>
        <mxCell id="wFepEt08jiN-5MbmRkze-16" style="edgeStyle=orthogonalEdgeStyle;rounded=0;orthogonalLoop=1;jettySize=auto;html=1;entryX=0.5;entryY=0;entryDx=0;entryDy=0;" edge="1" parent="1" source="wFepEt08jiN-5MbmRkze-5" target="wFepEt08jiN-5MbmRkze-7">
          <mxGeometry relative="1" as="geometry">
            <Array as="points">
              <mxPoint x="280" y="390" />
            </Array>
          </mxGeometry>
        </mxCell>
        <mxCell id="wFepEt08jiN-5MbmRkze-17" style="edgeStyle=orthogonalEdgeStyle;rounded=0;orthogonalLoop=1;jettySize=auto;html=1;entryX=0.5;entryY=0;entryDx=0;entryDy=0;" edge="1" parent="1" source="wFepEt08jiN-5MbmRkze-5" target="wFepEt08jiN-5MbmRkze-6">
          <mxGeometry relative="1" as="geometry">
            <Array as="points">
              <mxPoint x="480" y="390" />
            </Array>
          </mxGeometry>
        </mxCell>
        <mxCell id="wFepEt08jiN-5MbmRkze-5" value="S&amp;gt;= Len" style="rhombus;whiteSpace=wrap;html=1;" vertex="1" parent="1">
          <mxGeometry x="340" y="350" width="80" height="80" as="geometry" />
        </mxCell>
        <mxCell id="wFepEt08jiN-5MbmRkze-18" style="edgeStyle=orthogonalEdgeStyle;rounded=0;orthogonalLoop=1;jettySize=auto;html=1;entryX=0.5;entryY=0;entryDx=0;entryDy=0;" edge="1" parent="1" source="wFepEt08jiN-5MbmRkze-6" target="wFepEt08jiN-5MbmRkze-8">
          <mxGeometry relative="1" as="geometry" />
        </mxCell>
        <mxCell id="wFepEt08jiN-5MbmRkze-6" value="Заполнение оставшейся строки символами" style="rounded=0;whiteSpace=wrap;html=1;" vertex="1" parent="1">
          <mxGeometry x="420" y="440" width="120" height="60" as="geometry" />
        </mxCell>
        <mxCell id="wFepEt08jiN-5MbmRkze-19" style="edgeStyle=orthogonalEdgeStyle;rounded=0;orthogonalLoop=1;jettySize=auto;html=1;entryX=0.5;entryY=0;entryDx=0;entryDy=0;" edge="1" parent="1" source="wFepEt08jiN-5MbmRkze-7" target="wFepEt08jiN-5MbmRkze-8">
          <mxGeometry relative="1" as="geometry" />
        </mxCell>
        <mxCell id="wFepEt08jiN-5MbmRkze-7" value="Пропуск добавления символов" style="rounded=0;whiteSpace=wrap;html=1;" vertex="1" parent="1">
          <mxGeometry x="220" y="440" width="120" height="60" as="geometry" />
        </mxCell>
        <mxCell id="wFepEt08jiN-5MbmRkze-20" style="edgeStyle=orthogonalEdgeStyle;rounded=0;orthogonalLoop=1;jettySize=auto;html=1;entryX=0.5;entryY=0;entryDx=0;entryDy=0;" edge="1" parent="1" source="wFepEt08jiN-5MbmRkze-8" target="wFepEt08jiN-5MbmRkze-9">
          <mxGeometry relative="1" as="geometry" />
        </mxCell>
        <mxCell id="wFepEt08jiN-5MbmRkze-8" value="Копирование строки в результат" style="rounded=0;whiteSpace=wrap;html=1;" vertex="1" parent="1">
          <mxGeometry x="320" y="540" width="120" height="60" as="geometry" />
        </mxCell>
        <mxCell id="wFepEt08jiN-5MbmRkze-21" style="edgeStyle=orthogonalEdgeStyle;rounded=0;orthogonalLoop=1;jettySize=auto;html=1;entryX=0.5;entryY=0;entryDx=0;entryDy=0;" edge="1" parent="1" source="wFepEt08jiN-5MbmRkze-9" target="wFepEt08jiN-5MbmRkze-10">
          <mxGeometry relative="1" as="geometry" />
        </mxCell>
        <mxCell id="wFepEt08jiN-5MbmRkze-9" value="Восстановление регистров" style="rounded=0;whiteSpace=wrap;html=1;" vertex="1" parent="1">
          <mxGeometry x="320" y="630" width="120" height="60" as="geometry" />
        </mxCell>
        <mxCell id="wFepEt08jiN-5MbmRkze-10" value="конец" style="ellipse;whiteSpace=wrap;html=1;" vertex="1" parent="1">
          <mxGeometry x="320" y="720" width="120" height="60" as="geometry" />
        </mxCell>
      </root>
    </mxGraphModel>
  </diagram>
</mxfile>
